<svg width="92" height="92" viewBox="0 0 92 92" fill="none" xmlns="http://www.w3.org/2000/svg">
<path d="M78.8523 45.5005C78.8523 51.9164 76.9259 58.1881 73.3166 63.5227C69.7074 68.8573 64.5775 73.0151 58.5756 75.4703C52.5737 77.9256 45.9694 78.568 39.5978 77.3163C33.2263 76.0646 27.3736 72.9751 22.7799 68.4384C18.1863 63.9017 15.058 58.1216 13.7906 51.8291C12.5232 45.5365 13.1737 39.0141 15.6597 33.0866C18.1458 27.1591 22.3558 22.0928 27.7574 18.5284C33.1589 14.9639 39.5094 13.0614 46.0058 13.0614C54.7173 13.0614 63.0719 16.4791 69.2318 22.5626C75.3917 28.6461 78.8523 36.8971 78.8523 45.5005Z" fill="#ED1C24"/>
<path d="M34.7085 79.1001L33.3286 82.113L32.7465 83.284L32.1536 82.9859C32.0065 82.6807 31.8016 82.406 31.55 82.1768L32.4986 80.1221C32.3582 79.7152 32.1174 79.3494 31.7979 79.0575C31.6024 79.0092 31.3958 79.0318 31.2158 79.1214L29.5988 79.675C28.9994 79.907 28.3333 79.907 27.7339 79.675C27.4367 79.5242 27.1749 79.3138 26.9651 79.0571C26.7553 78.8004 26.6022 78.5031 26.5157 78.1845L27.1518 77.8757C27.3227 78.073 27.461 78.2958 27.5614 78.5358C27.6338 78.6709 27.7521 78.7765 27.8956 78.8339C28.1872 78.8924 28.4878 78.8924 28.7795 78.8339C29.2431 78.8339 29.491 78.7061 29.5341 78.6316C29.6419 78.3761 29.4694 78.0567 29.0059 77.6522C28.5548 77.2701 28.0501 76.9545 27.5075 76.7153C27.6233 76.4778 27.7844 76.2646 27.9818 76.0872L27.0871 75.6507L26.4834 75.3845L26.8284 74.6393L36.4225 78.8978L36.0775 79.643L34.7085 79.1001ZM33.2963 78.4613L30.2133 77.0773C30.3385 77.4941 30.3385 77.9379 30.2133 78.3548C30.5216 78.3833 30.832 78.3833 31.1403 78.3548C31.4739 78.3279 31.8092 78.3279 32.1429 78.3548C32.4337 78.7128 32.6765 79.1064 32.8651 79.5259C32.9322 79.4285 32.99 79.3252 33.0376 79.2172C33.0376 79.1001 33.1454 78.8446 33.2963 78.4613Z" fill="white"/>
<path d="M41.8664 80.5479L40.9393 85.062L40.2602 84.9342C38.7591 83.3825 36.7808 82.3645 34.6331 82.0384L34.536 80.7502C35.2044 80.6651 36.1638 80.6118 37.4143 80.5799C38.6648 80.5479 39.7104 80.5054 40.2925 80.4628V80.2605L34.2126 79.0468L34.3743 78.2697L43.6774 80.0902L43.5157 80.878L41.8664 80.5479ZM37.0262 84.6787C36.7466 84.6314 36.4792 84.5301 36.2393 84.3806C35.9159 84.189 35.7865 83.9547 35.8404 83.6992C35.9374 83.2202 36.3686 83.0605 37.134 83.2095C37.4083 83.2579 37.6692 83.3631 37.8994 83.5183C38.0235 83.5744 38.1272 83.6667 38.1966 83.7828C38.2659 83.8989 38.2977 84.0332 38.2875 84.1677C38.2596 84.283 38.1993 84.3882 38.1134 84.4711C38.0276 84.554 37.9197 84.6112 37.8024 84.6361C37.5521 84.7185 37.2841 84.7332 37.0262 84.6787ZM40.0769 81.4848C38.9989 81.4848 37.9856 81.5487 37.0262 81.6445C37.978 82.1561 38.8646 82.778 39.6673 83.497L40.0769 81.4848Z" fill="white"/>
<path d="M49.3476 80.4947V80.8141C50.0755 80.7849 50.8034 80.8711 51.5036 81.0696C52.4091 81.3464 52.8834 81.8042 52.9265 82.4643C52.9265 82.7943 52.7325 83.0711 52.3013 83.316C51.9695 83.4962 51.6013 83.6016 51.2233 83.6247C50.9774 83.6464 50.7298 83.6099 50.5011 83.5182C50.3958 83.4827 50.3018 83.4204 50.2285 83.3378C50.1552 83.2551 50.1052 83.1549 50.0833 83.0471C50.0615 82.9394 50.0687 82.8279 50.1042 82.7237C50.1396 82.6196 50.2021 82.5264 50.2855 82.4536C50.451 82.3223 50.6553 82.2476 50.8676 82.2407C51.2154 82.2437 51.5553 82.3433 51.8485 82.5281C51.9779 82.4643 52.0426 82.411 52.0318 82.3365C52.0318 81.8255 51.3096 81.6126 49.9513 81.6871H49.3907L49.574 84.9874H48.8841C48.1414 84.468 47.3136 84.0791 46.437 83.8376C45.4113 83.6343 44.3678 83.5309 43.3216 83.5289L42.5347 82.4643C44.3234 82.0563 46.09 81.5588 47.8276 80.9738C47.8163 80.8534 47.8163 80.7322 47.8276 80.6118L41.834 80.9418L41.7585 80.1647L54.08 79.4833V80.2605L49.3476 80.4947ZM47.9893 82.6772C47.9893 82.7411 47.9893 82.5175 47.9247 82.0171C47.0019 82.2225 46.0914 82.4784 45.1973 82.7836C45.9196 82.9966 46.879 83.316 48.0432 83.7631L47.9893 82.6772Z" fill="white"/>
<path d="M55.3304 79.4195L56.4084 83.8376L55.8371 83.9761C55.5094 83.7778 55.1412 83.6542 54.7591 83.6141L53.7781 79.7814L52.3013 80.1647L52.0964 79.3875L53.6595 78.9936L53.4224 78.0993L53.9937 77.929L54.8238 78.7062L56.6456 78.2484L56.8396 79.0362L55.3304 79.4195Z" fill="white"/>
<path d="M62.7255 76.7153L64.5473 80.9738L63.9005 81.24C61.7729 80.7917 59.5547 81.0538 57.5943 81.9852L56.7858 80.9206C57.2817 80.4841 58.047 79.8559 59.0603 79.1746C60.0737 78.4932 60.9145 77.8332 61.3672 77.4712L61.281 77.2902L55.5353 79.6856L55.2119 78.9404L63.9221 75.2887L64.2455 76.0233L62.7255 76.7153ZM61.7661 78.4506C60.9294 79.0274 60.12 79.642 59.3406 80.2924C60.4149 80.1677 61.5003 80.1677 62.5746 80.2924L61.7661 78.4506ZM61.1085 82.8156C60.8472 82.934 60.5656 83.0026 60.2785 83.0179C60.1371 83.0439 59.9909 83.025 59.8611 82.9638C59.7313 82.9026 59.6246 82.8022 59.5562 82.6772C59.3622 82.2301 59.6317 81.8468 60.3432 81.5487C60.599 81.4409 60.8735 81.3831 61.1516 81.3783C61.2856 81.3649 61.4205 81.3925 61.5381 81.4572C61.6557 81.5219 61.7503 81.6208 61.8092 81.7403C61.8565 81.8488 61.8695 81.9689 61.8464 82.0848C61.8233 82.2007 61.7652 82.307 61.6799 82.3897C61.5257 82.5661 61.3293 82.7015 61.1085 82.7837V82.8156Z" fill="white"/>
<path d="M7.24113 38.1227L11.2728 38.6124L11.1111 39.9432L10.0331 39.8048L9.01982 39.6877C8.7466 39.6223 8.4611 39.6261 8.18976 39.6987C7.91842 39.7713 7.67 39.9103 7.46751 40.1029C7.13893 40.5671 6.94849 41.1129 6.91774 41.6785C6.8315 42.3599 6.91774 42.7431 7.03632 42.7431H7.09022V42.626V42.5089V42.2215C7.08316 42.1222 7.08316 42.0226 7.09022 41.9234C7.13605 41.6149 7.25824 41.3223 7.44595 41.0717C7.68311 40.731 7.93105 40.5713 8.18977 40.6032C8.44849 40.6352 8.79344 41.0078 8.89046 41.6679C8.97069 42.2792 8.97069 42.8983 8.89046 43.5097L8.07119 43.9887C8.07119 43.8184 8.07119 43.6587 8.14665 43.499V43.2329C8.29757 42.0511 8.20055 41.4336 7.86637 41.3911C7.53219 41.3485 7.53219 41.5507 7.47829 41.9553C7.44222 42.3967 7.53183 42.8392 7.73701 43.2329C7.42439 43.6906 7.09022 43.9036 6.75604 43.861C6.58484 43.8368 6.42375 43.7663 6.29058 43.6573C6.15741 43.5483 6.05735 43.4051 6.00144 43.2435C5.85583 42.9309 5.80347 42.5837 5.85053 42.2428C6.06523 41.1958 6.57318 40.2294 7.31659 39.4534L6.3464 39.3363L6.69136 36.5789L7.41361 36.6641L7.24113 38.1227Z" fill="white"/>
<path d="M9.77433 29.957L13.612 31.2665L13.364 31.9159C12.8346 32.0684 12.319 32.2643 11.8225 32.5014C11.2258 32.8218 10.7607 33.3376 10.5074 33.96H10.5936C10.7264 34.002 10.8436 34.0821 10.93 34.1902C11.0164 34.2984 11.0682 34.4295 11.0787 34.5668C11.1084 34.8411 11.0715 35.1185 10.9709 35.3759C10.862 35.6939 10.6898 35.9871 10.4642 36.2383C10.1624 36.5683 9.88213 36.6854 9.60185 36.5896C9.43371 36.5212 9.29031 36.4044 9.19033 36.2544C9.09035 36.1044 9.03842 35.9281 9.0413 35.7485C8.99397 35.3902 9.03085 35.0259 9.1491 34.6839C9.40873 34.1092 9.78689 33.5943 10.2594 33.1722C10.572 32.8847 11.0464 32.4908 11.6716 31.9904L9.31079 31.1813L7.34885 36.7812L6.65894 36.547L9.63419 28.03L10.3241 28.2642L9.77433 29.957ZM14.0647 22.5898L17.5035 24.719L17.1586 25.2513L16.404 25.6453L15.1104 24.8042L14.5714 24.4635C14.399 24.3539 14.1913 24.3121 13.9893 24.3464L13.7845 27.2848L12.8574 28.03C12.9544 27.2954 12.9544 26.9122 12.8574 26.8483C12.7604 26.7844 12.5448 26.8483 12.3939 27.0719C12.2429 27.2954 12.2214 27.3699 12.092 27.6148C11.9627 27.8597 11.8656 28.0407 11.7902 28.1578C11.5099 28.6049 11.2081 28.722 10.8739 28.5197C10.5397 28.3175 10.5505 27.9661 10.6691 27.3274C10.7329 26.8825 10.8791 26.4531 11.1003 26.0605C11.7005 25.1406 12.5477 24.4035 13.5473 23.9312C13.2886 23.7715 13.0083 23.5905 12.728 23.3882L14.2264 20.9928L14.8301 21.3655L14.0647 22.5898ZM12.9867 25.8369V24.7723C12.5522 24.9929 12.1952 25.338 11.9627 25.7624C11.8272 25.9818 11.7221 26.2181 11.65 26.465C11.5422 26.8163 11.5638 27.0506 11.7255 27.1783L11.8225 27.1251C11.8872 27.0612 12.092 26.7418 12.437 26.1989C12.4961 26.0911 12.5832 26.0009 12.6893 25.9373C12.7953 25.8737 12.9166 25.839 13.0406 25.8369H12.9867Z" fill="white"/>
<path d="M17.5144 25.6133C17.2689 25.644 17.0327 25.7252 16.821 25.8518C16.6093 25.9783 16.4268 26.1473 16.2855 26.3479C15.9673 26.7911 15.6963 27.2656 15.477 27.7639C15.2544 28.2639 14.9837 28.7416 14.6685 29.1904C14.3786 29.5481 14.0099 29.8357 13.5905 30.0315C13.399 30.1578 13.1739 30.2253 12.9437 30.2253C12.7134 30.2253 12.4884 30.1578 12.2969 30.0315L12.0813 29.8718L12.5017 29.3395C12.748 29.4468 13.0233 29.4705 13.2846 29.4069C13.5459 29.3433 13.7786 29.1961 13.9462 28.9882C14.2208 28.6174 14.459 28.2217 14.6577 27.8064C14.8603 27.4101 15.0984 27.0324 15.3692 26.6779C15.6903 26.2615 16.0802 25.9016 16.5226 25.6133L16.2747 25.411L16.9969 24.4955L17.8917 25.1875L17.5144 25.6133ZM19.196 17.0963C19.7485 17.0352 20.2664 16.8001 20.6729 16.4256C20.8646 16.2313 21.0344 16.0171 21.1795 15.7868H22.4516C22.2224 16.2574 22.1689 16.7929 22.3007 17.2986C22.4422 17.7023 22.6787 18.0672 22.9906 18.3632C23.2643 18.5639 23.5656 18.7253 23.8853 18.8423L23.6374 19.3533C22.9005 19.2322 22.2068 18.9281 21.6215 18.4697C21.3687 18.0953 21.1726 17.6864 21.0394 17.256C20.6693 17.4605 20.2745 17.6179 19.8644 17.7244C19.5216 17.7896 19.1672 17.7602 18.8403 17.6393C18.6047 17.9983 18.4231 18.3892 18.3013 18.7997C18.172 19.2362 18.1935 19.5343 18.3552 19.7046C18.3775 19.7314 18.4054 19.7529 18.4371 19.7677C18.4688 19.7825 18.5034 19.7902 18.5385 19.7902C18.5735 19.7902 18.6081 19.7825 18.6398 19.7677C18.6715 19.7529 18.6995 19.7314 18.7217 19.7046C18.9939 19.3121 19.1437 18.8495 19.1529 18.3739C19.4519 18.2668 19.7749 18.243 20.0867 18.305C20.3985 18.3669 20.687 18.5123 20.9208 18.7252C21.0579 18.8633 21.1582 19.0329 21.2128 19.2187C21.2673 19.4044 21.2744 19.6007 21.2334 19.7898C21.1208 20.3132 20.8412 20.787 20.4357 21.1419C20.0995 21.5114 19.6742 21.791 19.1993 21.9548C18.7244 22.1186 18.2153 22.1612 17.7192 22.0788C17.0034 21.847 16.3163 21.5363 15.671 21.1525L16.1992 20.5244C16.7379 20.9216 17.3824 21.1548 18.0534 21.1951C18.7355 21.1291 19.3652 20.8047 19.8105 20.2902C19.985 20.1301 20.1212 19.9338 20.2094 19.7153C20.2695 19.6148 20.2966 19.4984 20.2869 19.3821C20.2773 19.2658 20.2313 19.1553 20.1555 19.0659C20.1032 19.0048 20.0366 18.9573 19.9614 18.9275C19.8675 19.2371 19.6971 19.5188 19.4655 19.7472C19.2913 19.936 19.0801 20.088 18.8449 20.1941C18.6096 20.3002 18.3551 20.3582 18.0965 20.3647C17.9203 20.3565 17.7476 20.3137 17.5884 20.2387C17.4292 20.1638 17.2868 20.0582 17.1694 19.9282C17.0387 19.6866 16.9789 19.4137 16.9969 19.1404L14.6254 21.3974L14.1295 20.8864L21.9665 13.434L22.4731 13.945L19.196 17.0963Z" fill="white"/>
<path d="M24.6508 12.9336L26.9038 16.2979L26.4726 16.5747C26.1445 16.5175 25.8089 16.5175 25.4808 16.5747L23.5296 13.6576L22.3654 14.4241L21.9666 13.8173L23.1955 13.0507L22.7427 12.3587L23.1631 12.0606L24.0902 12.4652L25.4808 11.5603L25.8797 12.1565L24.6508 12.9336Z" fill="white"/>
<path d="M25.2866 12.1458L25.0063 11.4964L34.5035 7.38693L34.7945 8.03635L25.2866 12.1458ZM32.1642 13.6469C31.2191 14.1115 30.1363 14.2249 29.1135 13.9663C28.1073 13.6495 27.2404 13.0037 26.6557 12.1352L27.1408 11.7732C27.6314 12.3533 28.2463 12.8187 28.941 13.1359C29.3822 13.2838 29.8488 13.343 30.3135 13.3101C30.7782 13.2772 31.2315 13.1528 31.6468 12.9443C32.1058 12.7443 32.5283 12.471 32.8972 12.1352C33.3823 11.688 33.544 11.2728 33.3716 10.9002C33.3009 10.7403 33.185 10.604 33.0377 10.5077C32.8905 10.4113 32.7181 10.3591 32.5415 10.3572C32.1732 10.3182 31.8011 10.377 31.4635 10.5276C31.097 10.6873 30.9245 10.815 30.9676 10.9108C31.0108 11.0067 31.097 10.9747 31.3126 11.0067C31.5282 11.0386 31.6468 11.1025 31.6899 11.1983C31.7343 11.3219 31.7384 11.4561 31.7017 11.5821C31.6649 11.7081 31.5892 11.8196 31.4851 11.9009C31.2978 12.0961 31.0697 12.2487 30.8167 12.3481C30.5288 12.4875 30.21 12.5533 29.8896 12.5397C29.7313 12.5364 29.5774 12.4872 29.447 12.3983C29.3167 12.3093 29.2157 12.1845 29.1566 12.0393C29.0057 11.6987 29.1566 11.3048 29.6309 10.8789C29.9771 10.5561 30.3786 10.2965 30.8167 10.1124C31.4155 9.84876 32.0709 9.73539 32.7248 9.78234C33.0473 9.76125 33.3691 9.83364 33.6506 9.99061C33.9321 10.1476 34.1611 10.3823 34.3094 10.666C34.4232 10.9799 34.4366 11.3208 34.348 11.6426C34.2593 11.9644 34.0727 12.2515 33.8135 12.4652C33.3673 12.9836 32.8017 13.3888 32.1642 13.6469Z" fill="white"/>
<path d="M42.2004 6.9185L42.5669 9.04775L41.4889 9.22874L41.1979 8.57932C40.5442 8.31946 39.8432 8.19621 39.1389 8.21734C39.1723 8.28888 39.1977 8.36386 39.2144 8.44092C39.2934 8.83838 39.0455 9.08324 38.4705 9.17551C38.2141 9.22359 37.9508 9.22359 37.6944 9.17551C37.5678 9.15739 37.4496 9.10197 37.3554 9.01651C37.2611 8.93104 37.1952 8.81949 37.1662 8.69643C37.0907 8.2067 37.4141 7.89796 38.1471 7.78085C39.097 7.67082 40.0587 7.71759 40.993 7.91925L40.8637 7.18466L34.7299 8.19605L34.6113 7.48275L44.6474 5.79L44.7552 6.45007L42.2004 6.9185Z" fill="white"/>
<path d="M42.7933 11.1664H42.1573L41.9201 11.0705H41.3919C40.9578 11.0981 40.5259 11.1515 40.0983 11.2302C39.6699 11.3013 39.2382 11.3511 38.8047 11.3793C38.3287 11.4191 37.8493 11.3685 37.3925 11.2302C37.1652 11.1801 36.9604 11.0587 36.8089 10.884C36.6573 10.7094 36.5671 10.4909 36.5517 10.2614C36.5446 10.1373 36.5446 10.0129 36.5517 9.8888H37.3602C37.3602 10.5276 37.6836 10.8363 38.2334 10.815C38.5029 10.815 38.8909 10.7512 39.4084 10.6766C39.797 10.6059 40.1893 10.5561 40.5834 10.5276C40.8605 10.5197 41.1371 10.5556 41.4027 10.634C41.3896 10.4462 41.3896 10.2577 41.4027 10.0698V9.50554C41.4093 9.4082 41.3933 9.31064 41.3559 9.22036C41.3184 9.13007 41.2605 9.04946 41.1866 8.9847C41.1127 8.91995 41.0248 8.87277 40.9296 8.84679C40.8343 8.82081 40.7344 8.81672 40.6373 8.83483H40.4432L40.0767 9.12227C40.666 9.12227 40.9679 9.22874 40.9822 9.44166C40.9826 9.5197 40.9619 9.59641 40.922 9.66382C40.8822 9.73123 40.8248 9.78686 40.7559 9.82493C40.6242 9.92275 40.4673 9.9818 40.3031 9.99527C39.4946 9.99527 39.085 9.81428 39.0634 9.35649C39.0527 9.23839 39.0694 9.11943 39.1124 9.00871C39.1554 8.898 39.2234 8.79846 39.3114 8.71772C39.5656 8.5179 39.8594 8.37284 40.1738 8.29187C40.7577 8.25486 41.3439 8.28703 41.9201 8.38768C42.1384 8.42444 42.3371 8.53463 42.4825 8.69957C42.6279 8.8645 42.711 9.07403 42.7178 9.29261V10.6553C42.762 10.8224 42.7873 10.9938 42.7933 11.1664ZM46.5339 6.86527L46.4692 10.8576H45.9302C45.7046 10.5841 45.4214 10.3625 45.1002 10.2082V9.72911V6.84398L43.6772 6.82269V6.12003H45.4128L46.0165 5.74742C45.2572 5.11314 44.2944 4.766 43.2999 4.76796C42.4194 4.74306 41.5517 4.98048 40.8098 5.44932L40.3247 5.15123C41.4749 4.53293 42.7477 4.16963 44.0545 4.0866C44.7037 4.10166 45.3425 4.25033 45.9302 4.5231C46.4585 4.77347 46.9635 5.06915 47.4394 5.40674L46.2321 6.15197H47.9461V6.85463L46.5339 6.86527ZM57.9498 8.67513L56.9904 12.6142L56.2574 12.4333C54.9821 10.996 53.2615 10.0153 51.3633 9.64394V8.51544C52.2321 8.46256 53.1033 8.46256 53.972 8.51544H56.6023V8.36639L50.5333 6.89721L50.6949 6.2052L59.5345 8.33445L59.362 9.02646L57.9498 8.67513ZM56.3652 9.37778C55.201 9.3352 54.2415 9.3352 53.4869 9.37778C54.3754 9.85665 55.1948 10.451 55.9232 11.1451L56.3652 9.37778Z" fill="white"/>
<path d="M61.0976 9.98462L59.5561 13.6895L59.071 13.4979C58.9453 13.1941 58.7582 12.9188 58.5212 12.6888L59.8579 9.4949L58.5644 8.97323L58.8446 8.30252L60.1598 8.83483L60.4832 8.0683L60.9791 8.24928L61.1515 9.23939L62.6823 9.86751L62.4128 10.5276L61.0976 9.98462ZM64.9461 17.0963C64.7197 16.7556 64.3963 16.3298 63.9759 15.7975C63.6456 15.3652 63.2854 14.9562 62.8979 14.5732C62.4417 14.1555 61.9553 13.7712 61.4426 13.4234L62.3697 12.5078L63.3183 13.434C63.8111 14.0073 64.2444 14.6278 64.6119 15.2865C65.0115 15.95 65.3715 16.6361 65.6899 17.3412L64.9461 17.0963ZM63.4584 12.8378C63.1285 12.6597 62.8358 12.4213 62.596 12.1352C62.457 12.0126 62.3619 11.8489 62.325 11.6685C62.288 11.4881 62.3113 11.3007 62.3912 11.1344C62.5162 10.9468 62.6941 10.7994 62.9029 10.7105C63.1117 10.6216 63.3423 10.595 63.5662 10.634C64.0259 10.651 64.4757 10.7712 64.8814 10.9854C65.2067 11.1522 65.4931 11.3842 65.7222 11.6667C65.8442 11.7965 65.9222 11.9605 65.9454 12.136C65.9685 12.3116 65.9358 12.4899 65.8516 12.6462C65.7391 12.8244 65.5788 12.9685 65.3886 13.0625C65.1983 13.1564 64.9855 13.1966 64.7736 13.1785C64.3127 13.1797 63.8594 13.0623 63.4584 12.8378ZM64.1591 11.2409C64.0776 11.2219 63.9927 11.2219 63.9112 11.2409C63.8741 11.2362 63.8363 11.2417 63.8021 11.2567C63.7679 11.2717 63.7385 11.2957 63.7172 11.3261C63.6715 11.4302 63.6479 11.5426 63.6479 11.6561C63.6479 11.7696 63.6715 11.8819 63.7172 11.9861C63.772 12.2121 63.9055 12.4118 64.0945 12.5504L64.3855 12.6249H64.6227C64.6227 12.6249 64.6227 12.3055 64.4933 11.9329C64.364 11.5603 64.2346 11.2941 64.1591 11.2409ZM67.2206 16.415C67.3147 16.3323 67.4272 16.2729 67.549 16.2414C67.6708 16.2099 67.7984 16.2074 67.9213 16.234C68.1722 16.2893 68.4077 16.3983 68.6112 16.5534C68.8018 16.7103 68.95 16.9115 69.0424 17.1389C69.099 17.2491 69.1219 17.3731 69.1085 17.4959C69.0951 17.6188 69.046 17.7351 68.967 17.8309C68.6112 18.2568 68.1154 18.2142 67.4901 17.6925C67.0414 17.3326 66.7081 16.8518 66.5307 16.3085C66.4216 16.0513 66.3831 15.7702 66.419 15.4935C66.455 15.2169 66.5642 14.9545 66.7355 14.7328C66.8504 14.5903 66.9963 14.4752 67.1624 14.3959C67.3285 14.3167 67.5105 14.2754 67.6949 14.2751C68.0687 14.2955 68.4251 14.4378 68.7083 14.6796C68.9451 14.9017 69.1484 15.1563 69.3119 15.4355C69.5193 15.6995 69.6564 16.0106 69.7108 16.3404C70.2082 16.5321 70.7405 16.6191 71.2739 16.5959C71.2036 16.9855 71.2803 17.387 71.4895 17.7244L72.1471 16.9579C71.7735 16.6996 71.4137 16.4224 71.0691 16.1275L67.2314 12.9336L67.7273 12.3481L74.6157 18.0545L74.1521 18.6081L73.2143 17.8416L70.6271 20.9396L70.1312 20.4712L69.9803 19.5556L70.5947 18.8423C70.7514 18.6756 70.8854 18.4895 70.9936 18.2887C71.0549 18.1587 71.0764 18.0138 71.0553 17.8719C71.0342 17.7301 70.9715 17.5974 70.875 17.4902L69.5491 17.0963C69.4491 16.9074 69.3626 16.7117 69.2904 16.5108C69.246 16.3539 69.1808 16.2035 69.0963 16.0636C68.9653 15.8642 68.8013 15.6879 68.6112 15.542C68.4004 15.3596 68.1494 15.2284 67.8782 15.1587C67.7447 15.1205 67.6027 15.1223 67.4702 15.164C67.3378 15.2057 67.2209 15.2854 67.1344 15.3929C67.0045 15.5324 66.9315 15.7144 66.9296 15.9039C66.9303 15.9962 66.952 16.0872 66.9931 16.1701C67.0341 16.253 67.0935 16.3257 67.1667 16.383L67.2206 16.415Z" fill="white"/>
<path d="M75.532 20.4925L72.4597 23.1434L72.1147 22.7601C72.1402 22.4275 72.0924 22.0933 71.9746 21.7807L74.6373 19.4811L73.721 18.4164L74.26 17.948L75.1978 19.0126L75.8446 18.459L76.2003 18.8423L75.9093 19.8111L76.9873 21.0461L76.4375 21.5145L75.532 20.4925Z" fill="white"/>
<path d="M78.1729 23.9312C77.9579 23.7226 77.701 23.5607 77.4188 23.4562C77.1366 23.3517 76.8353 23.3068 76.5344 23.3244C75.9897 23.2373 75.4311 23.323 74.9389 23.5692C74.6479 23.7715 74.5724 23.9738 74.7018 24.1867C74.864 24.2452 75.0357 24.2741 75.2084 24.2719C75.3448 24.2973 75.4741 24.3513 75.5875 24.4303C75.701 24.5093 75.7959 24.6114 75.866 24.7297C75.9999 24.9123 76.0716 25.1323 76.0708 25.3578C76.0768 25.4655 76.0564 25.573 76.0114 25.6712C75.9663 25.7694 75.898 25.8555 75.8121 25.9221C75.713 25.9908 75.5988 26.0353 75.4788 26.052C75.3589 26.0686 75.2367 26.0569 75.1222 26.0179C74.7929 25.9133 74.5109 25.6987 74.3245 25.411C74.0333 25.0454 73.8876 24.5872 73.9148 24.1228C73.951 23.9047 74.0342 23.6967 74.1588 23.513C74.2834 23.3293 74.4465 23.1742 74.6371 23.0582C74.9819 22.7933 75.3774 22.6002 75.7998 22.4904C76.2222 22.3806 76.6628 22.3565 77.0949 22.4194L76.0169 20.9183L76.6098 20.5031L79.4449 24.389L78.852 24.8148L78.1729 23.9312Z" fill="white"/>
<path d="M80.0594 26.9867L78.4964 27.7426V27.9555C79.504 28.6299 80.4395 29.404 81.2884 30.2657V31.6817C80.9974 31.4305 80.639 31.2677 80.2565 31.2129C79.874 31.1581 79.4836 31.2137 79.1324 31.3729C78.7353 31.5936 78.4072 31.9177 78.1837 32.3098L77.7957 31.49C78.1471 30.9909 78.6076 30.5761 79.1432 30.2764C79.3702 30.176 79.6093 30.1044 79.8546 30.0634C79.1303 29.2956 78.2482 28.6894 77.2675 28.2855L77.095 26.9015L79.4558 25.7304L78.712 24.2612L79.3588 23.9418L83.4012 31.9159L82.7436 32.2353L80.0594 26.9867ZM84.4253 39.166L80.5661 40.0922L80.3828 39.4534L80.7278 38.5911L82.2478 38.2823C82.62 38.2161 82.9667 38.0504 83.2503 37.8033C83.5709 37.4273 83.7499 36.9533 83.757 36.4618C83.7082 36.3667 83.6542 36.2743 83.5953 36.185C83.509 36.0679 83.4443 36.004 83.3904 35.9934C83.3365 35.9828 83.218 36.1424 83.1748 36.3234C83.1317 36.5044 83.0239 36.877 82.9808 36.9941C82.952 37.0865 82.902 37.1711 82.8347 37.2413C82.7674 37.3114 82.6846 37.3653 82.5927 37.3987C82.1831 37.4981 81.9136 37.2958 81.7842 36.7919C81.752 36.5908 81.752 36.3861 81.7842 36.185C81.9028 35.9828 82.043 35.7272 82.1939 35.4079C82.0513 35.2521 81.8881 35.1161 81.7088 35.0033C81.4524 34.8352 81.2651 34.5823 81.1806 34.29C81.1375 34.09 81.1375 33.8832 81.1806 33.6832C81.1806 33.417 81.3423 33.268 81.5147 33.2254C81.6872 33.1828 82.0969 33.3105 82.4526 33.6725C82.6735 33.9315 82.9314 34.1574 83.218 34.3432L82.9592 33.2786C83.1622 32.9912 83.3356 32.6845 83.4767 32.363C83.6446 32.9365 83.6995 33.5364 83.6384 34.1303C83.6384 34.3645 83.5629 34.5774 83.5414 34.7584C83.959 35.2202 84.3275 35.7233 84.6409 36.2596C84.3169 36.7649 84.0425 37.2996 83.8216 37.8565L84.7918 37.6329L85.4602 40.3158L84.7487 40.4861L84.4253 39.166Z" fill="white"/>
<path d="M90.5699 45.5005C90.5699 54.2052 87.9563 62.7144 83.0595 69.952C78.1627 77.1897 71.2028 82.8308 63.0597 86.1619C54.9167 89.493 45.9563 90.3646 37.3117 88.6664C28.6671 86.9682 20.7265 82.7765 14.4941 76.6214C8.26169 70.4663 4.01736 62.6241 2.29785 54.0867C0.578327 45.5493 1.46085 36.7001 4.8338 28.658C8.20676 20.6159 13.9187 13.7423 21.2472 8.90621C28.5757 4.07015 37.1918 1.48892 46.0057 1.48892C57.8205 1.503 69.1473 6.14445 77.5016 14.3952C85.8559 22.6459 90.5557 33.8322 90.5699 45.5005ZM46.0057 0.0623181C36.9108 0.0602136 28.0195 2.72154 20.456 7.70979C12.8925 12.698 6.9965 19.7892 3.51355 28.0866C0.0306096 36.384 -0.882885 45.5151 0.888574 54.3252C2.66003 63.1354 7.03689 71.2289 13.4657 77.5825C19.8946 83.9361 28.0866 88.2644 37.0061 90.0201C45.9256 91.7757 55.172 90.88 63.576 87.4461C71.9801 84.0122 79.1644 78.1943 84.2206 70.7281C89.2768 63.2619 91.9778 54.4827 91.9821 45.5005C91.9735 33.4577 87.1279 21.91 78.5084 13.3915C69.889 4.87291 58.1998 0.0792332 46.0057 0.0623181Z" fill="#FEFEFE"/>
<path d="M33.2963 22.7388C32.9729 22.5578 31.7224 22.3236 31.3559 22.7388C30.9894 23.154 31.5607 24.1974 31.4637 24.719C30.763 24.9426 30.127 25.9327 29.7928 26.5502C29.243 27.5616 29.3724 28.1258 30.4288 28.6794C31.1519 28.9896 31.854 29.3452 32.5309 29.7441C33.2375 30.2806 34.0377 30.6847 34.8917 30.9364C35.0744 31.2941 35.1776 31.6862 35.1944 32.0865C35.2111 32.4868 35.141 32.886 34.9887 33.2573C34.2588 33.2145 33.5273 33.3085 32.8328 33.5341C32.0997 33.8429 32.0566 34.5136 31.5499 35.0672C31.0433 35.6208 30.472 35.706 30.0192 36.4938C29.6433 37.0517 29.4791 37.7229 29.5557 38.3888C30.0192 39.7835 32.5525 39.7409 33.6736 40.4116C35.3337 41.4123 34.2665 42.8922 33.555 44.0952C32.8435 45.2982 33.0268 46.4161 33.7706 47.864C34.5285 49.0204 35.1131 50.2791 35.5062 51.6008C36.0667 54.3688 34.8055 58.6912 37.4034 60.5543C38.0395 61.0121 38.9234 61.3634 39.3869 60.5543C39.7535 59.9475 39.8505 60.7672 40.3356 60.2562C41.0255 59.5216 40.6051 59.5855 40.8099 60.0646C41.2088 60.9801 41.3705 60.4478 42.4269 60.1817C43.4833 59.9155 43.7959 59.7771 44.5829 60.4585C45.3698 61.1398 45.8118 61.6296 46.4586 60.6501C46.9545 59.9049 46.782 58.7657 47.2671 58.0418C47.7522 57.3178 48.3451 57.7969 49.1536 58.0418C49.3368 58.0418 49.3045 58.1057 49.4554 58.2121C50.6735 58.2121 50.1992 57.1475 50.9754 56.7323C51.9563 56.2213 52.5277 57.6905 53.0451 56.4661C53.6811 54.997 52.5277 52.2715 55.3412 52.9635C57.066 53.3787 57.8529 55.2418 58.1979 56.8068C58.4243 57.8714 58.4351 58.8828 58.6938 59.8942C59.0111 60.8564 59.2279 61.8481 59.3406 62.8539C59.4252 64.0544 59.6532 65.2408 60.0197 66.3884C61.3672 66.3246 60.5587 64.6212 61.3349 64.0782C62.111 63.5352 63.6633 64.3869 64.6551 64.2272C64.7413 63.3563 64.7413 62.4792 64.6551 61.6083C64.5042 60.7033 64.0622 59.99 63.9867 59.0638C63.825 57.3498 64.2454 55.5186 63.9867 53.8046C63.728 52.0905 62.8009 50.6426 62.4021 49.0351C62.1539 47.424 61.7718 45.8359 61.2594 44.2868C60.8821 43.4138 60.4832 43.2222 59.4915 43.3606C58.9094 44.883 59.0819 46.299 58.2195 47.7469C57.3571 49.1947 56.333 50.5894 54.716 48.6837C54.1818 47.8807 53.7132 47.037 53.3146 46.1606C52.845 45.4634 52.5427 44.6696 52.4306 43.8397C52.3228 42.0405 53.7135 40.9226 55.2873 40.4542C56.6672 40.039 56.7426 39.6238 57.7883 38.7614C58.4782 38.1759 59.4807 38.0055 60.2569 37.4413C61.5612 36.5151 60.5264 35.6527 61.0761 34.4816C61.4534 33.6725 63.2321 33.6619 63.1674 32.7357C62.5207 32.3737 62.1757 31.7562 61.475 31.4049C60.8701 31.0329 60.2016 30.7731 59.5023 30.6383C58.8294 30.492 58.129 30.5288 57.4756 30.7448C56.9013 31.028 56.2977 31.2493 55.6754 31.4049C54.1554 31.4049 53.5194 29.1266 52.021 30.7235C51.579 31.1919 51.5036 31.703 50.943 32.0862C50.2876 32.4571 49.5423 32.6448 48.787 32.6292C48.0623 32.7162 47.3427 32.8406 46.6311 33.0018C45.8402 33.0561 45.0494 32.894 44.3457 32.5334C42.4053 31.8094 42.5994 31.011 42.5994 29.0201C42.5994 27.849 42.5994 25.081 41.0794 24.9958C40.0014 24.9426 40.3895 25.7304 39.775 26.1563C39.1606 26.5821 38.2874 25.9859 37.9748 25.6133C37.2956 24.719 37.6406 23.0902 36.056 22.9837C34.4713 22.8772 34.2126 24.5487 33.1993 22.7388" fill="#FFCB05"/>
<path d="M9.1492 50.8875L10.1086 53.7939H13.2132L10.7015 55.5931L11.6609 58.4996L9.1492 56.7003L6.64826 58.4996L7.60767 55.5931L5.09595 53.7939H8.20056L9.1492 50.8875ZM15.5848 64.5679L16.5334 67.4743H19.6381L17.1371 69.2736L18.0857 72.18L15.5848 70.3808L13.0731 72.18L14.0325 69.2736L11.5316 67.4743H14.6254L15.5848 64.5679ZM76.4267 64.4189L77.3861 67.3359H80.4799L77.9682 69.1352L78.9276 72.0416L76.4267 70.2424L73.9149 72.0416L74.8743 69.1352L72.3734 67.3359H75.4672L76.4267 64.4189ZM83.4228 50.4616L84.3822 53.3681H87.4761L84.9751 55.1673L85.9238 58.0737L83.4228 56.2745L80.9219 58.0737L81.8705 55.1673L79.3696 53.3681H82.4634L83.4228 50.4616Z" fill="#FFCB05"/>
</svg>
